<svg width="132" height="131" fill="none" xmlns="http://www.w3.org/2000/svg"><path d="M21.6 101.762l-5.3 3.9-.1-.2 1.8-3.6-.8-1-3.9.7-.2-.1 5.3-4-.8-1-6.5 4.9 1.3 1.7 3.9-.9.1.2-1.8 3.6 1.3 1.7 6.5-4.9-.8-1zm-5.4-7.799l-2.4.4-1.5-2.9 1.7-1.8-.7-1.3-5.9 6.2 1 2 8.5-1.4-.7-1.2zm-7 1.3l-.2-.4 2.4-2.4 1.2 2.2-3.4.6zm3.1-9.401l-2.5.9-2.2-1.1-.1-.2 3.4-3.6-.4-1.4-4.4 4.5-3.2-1.5.5 1.5 4.7 2.3-3.4 1.3.4 1.2 7.7-2.6-.5-1.3zM9 73.063l-1.2.3.9 4.5-2.3.4-.7-3.4-1.2.2.7 3.5-2.1.4-.8-4.4-1.3.2 1.2 5.8 7.9-1.6-1.1-5.9zm-.4-11.4H7.4l-.1 4.6H5v-3.5H3.8v3.5H1.7v-4.5H.5l-.1 5.8 8.2.1v-6zm.8-6l-7.7-3.7-.2 1.4 6.4 3-.1.5-7 1-.2 1.5 8.4-1.3.4-2.4zm2.4-9.6l-1.1-.4-1.4 4.5-2.2-.7 1-3.4-1.2-.3-1 3.3-2-.5 1.3-4.3-1.2-.4-1.6 5.6 7.7 2.3 1.7-5.7zm1.2-2.8l-2.9-1.3.8-1.7c.1-.2.2-.4.3-.7l3.4.3.6-1.3-3.8-.3c0-.9-.5-1.6-1.4-2-1.4-.6-2.6-.1-3.4 1.5l-1.5 3.4 7.4 3.4.5-1.3zm-4-1.9l-2.3-1 .9-2c.5-1 1.1-1.2 1.8-.9.7.3 1 .9.5 2l-.9 1.9zm8.1-6.001l.8-1.2-2.6-1.6-2.7-5.2-.8 1.3 1.8 3.5-.1.2-4-.2-.8 1.3 5.9.3 2.5 1.6zm-.6-10.9l5.3 4.5.9-1.1-5.3-4.5 1.7-1.9-.9-.8-4.3 5 .9.7 1.7-1.9zm9.9-.5l-2.4-2.7 3.1-2.6 2.3 2.6 1.1-.9-5.4-6.1-1 .9 2.1 2.5-3 2.7-2.2-2.5-1 .9 5.4 6.1 1-.9zm2.441-12.354l-1.147.802 4.638 6.64 1.148-.802-4.639-6.64zm7.659 4.755l-2.9-5.5.2-.1 5.9 3.8 1.7-.9-3.9-7.1-1.1.6 2.9 5.4-.2.1-5.9-3.8-1.7.9 3.9 7.2 1.1-.6zm10.3-4.601c2.4-.8 2.7-2.9 2.1-4.6l-.3-.8-3.4 1.2.4 1.1 2.1-.7c.4 1.2.1 2.3-1.3 2.8-1.6.6-2.8-.4-3.3-2s-.2-3.1 1.3-3.6c1-.3 1.7-.1 2.1.5l1.3-.5c-.8-1.3-2.2-1.7-3.8-1.2-2.4.8-3 3-2.2 5.3.8 2.1 2.6 3.3 5 2.5zm15-7.7l-3.6.4.1 1.2 2.2-.3c.1 1.3-.4 2.2-1.8 2.4-1.7.2-2.6-1-2.8-2.7-.2-1.6.4-3 2.1-3.2 1-.1 1.6.2 1.9.9l1.5-.2c-.5-1.4-1.7-2.2-3.5-2-2.5.3-3.6 2.2-3.3 4.6.3 2.4 1.8 4 4.3 3.7 2.5-.3 3.3-2.2 3-4.1l-.1-.7zm9.1-1.1c0-1.5-.9-2.5-2.7-2.5l-3.7-.1-.3 8.1h1.4l.1-3.2 1.9.1h.7l1 3.3h1.4l-1.1-3.6c.8-.4 1.2-1.1 1.3-2.1zm-3 1.1l-2.2-.1.1-2.5 2.2.1c1.1 0 1.6.5 1.5 1.3 0 .8-.5 1.3-1.6 1.2zm6.2-3.2l-1.5 8 5.9 1 .3-1.2-4.6-.8.4-2.3 3.5.6.2-1.2-3.5-.6.4-2.1 4.4.8.2-1.2-5.7-1zm8.4 7.7l3.1 1v2.5l1.4.4v-8.6l-2.1-.7-5.1 6.9 1.3.4 1.4-1.9zm2.7-3.8l.4.1v3.4l-2.4-.7 2-2.8zm5.3 9.5l3-6.3 2.3 1.1.5-1.1-5.9-2.8-.5 1.1 2.3 1.1-2.9 6.3 1.2.6zm9.2 2.7l2.7 2-.8 2.3 1.1.9 2.7-8.1-1.8-1.3-7 4.9 1.1.8 2-1.5zm3.8-2.8l.4.3-1.1 3.2-2-1.5 2.7-2zm2.4 11.3c1.8 1.8 3.7 1.3 5.1 0l.6-.6-2.5-2.6-.8.8 1.5 1.6c-1 .9-2 1-3 0-1.2-1.2-.8-2.7.4-3.9 1.2-1.1 2.7-1.5 3.9-.3.7.7.8 1.4.5 2.1l1 1c.8-1.2.7-2.7-.6-4-1.7-1.8-4-1.5-5.7.2-1.8 1.7-2.2 3.9-.4 5.7zm4 4.101l2.3-.8 2 2.7-1.4 2 .8 1.1 4.9-7-1.3-1.8-8.1 2.7.8 1.1zm6.7-2.3l.3.4-2 2.8-1.5-2 3.2-1.2zm4.708 4.62l-6.985 4.102.709 1.208 6.985-4.102-.709-1.208zm-4.608 8.479l5.6-2.5.1.2-4.2 5.6.7 1.7 7.5-3.3-.6-1.1-5.6 2.5-.1-.2 4.3-5.7-.8-1.7-7.4 3.3.5 1.2zm3.4 13l.7-.2-.3-1.2 8.5-2.1.3 1.2.7-.1-.5-2.1-9.9 2.4.5 2.1zm8.4-.599l.4 2.7-7.2 1 .2 1 7.1-1 .4 2.6.9-.1-.9-6.3-.9.1zm2.1 10.599v-1.7h-8.2v1h7v.2l-3.9 2.1v1.1l3.9 2.1v.2h-7v1h8.2v-1.7l-3.9-2v-.3l3.9-2zm-.1 8.5l-.1 1.3-8.6-1.1.1-1.2-.8-.1-.2 2.2 10.2 1.2.2-2.2-.8-.1zm-9.9 8.201l6.3 1.9-.1.3-4 .5-.4 1.3 2.9 2.8v.2l-6.3-2-.4 1.3 7.8 2.4.6-2-2.9-2.7v-.3l4-.5.6-2-7.7-2.5-.4 1.3zm-5.6 13.7l1.1.5 2.1-4.1 2.1 1-1.6 3.2 1.1.5 1.6-3.1 1.8.9-2 4 1.1.6 2.7-5.3-7.3-3.6-2.7 5.4zm2.8 3.2c-2-1.4-4.2-1.3-5.7.8-1.4 2.1-.5 3.899 1 4.999l.7.5 2-3-1-.7-1.3 1.8c-1.1-.8-1.4-1.8-.6-3 1-1.4 2.5-1.3 3.9-.3 1.4.9 2 2.3 1 3.7-.6.8-1.3 1.1-2 .9l-.8 1.2c1.4.6 2.8.1 3.8-1.3 1.7-2 1-4.2-1-5.6zm-9 5.399l1.2 2.1-2.3 2.4-2.2-1-1 1 7.8 3.6 1.5-1.6-4.1-7.5-.9 1zm3.5 6.3l-.3.3-3.1-1.5 1.7-1.8 1.7 3zm-9.067-.606l-1.135.981.98 1.135 1.136-.981-.981-1.135zm-3.533 2.906l.7 2.3-2.7 1.9-1.9-1.5-1.2.8 6.8 5.2 1.8-1.3-2.4-8.2-1.1.8zm1.7 7.1l-2.7-2.1 2.1-1.4 1 3.3-.4.2zm-11-1.6c-2.3 1.1-2.3 3.2-1.5 4.8l.4.8 3.2-1.6-.5-1-2 1c-.6-1.2-.3-2.3.9-2.9 1.5-.7 2.8.1 3.5 1.6.7 1.5.6 3-.9 3.8-.9.5-1.6.3-2.1-.2l-1.3.6c.9 1.2 2.4 1.5 4 .7 2.2-1.1 2.7-3.3 1.6-5.5s-3.1-3.2-5.3-2.1zm-10.6 4.1l.4 1.2 4.4-1.4.7 2.2-3.4 1.1.4 1.2 3.3-1.1.7 2-4.3 1.4.4 1.1 5.6-1.7-2.5-7.8-5.7 1.8zm-3 .7l1 6-.2.1-4.3-5.6-1.9.4 1.3 8 1.3-.2-1-6.1.2-.1 4.4 5.6 1.8-.3-1.3-8.1-1.3.3zm-11.1.9c-1.8 0-3 1.1-3.3 2.6h1.4c.2-.9.9-1.4 1.9-1.4 1.7 0 2.4 1.3 2.5 3 0 1.6-.7 3-2.4 3-1 0-1.5-.4-1.8-1.1h-1.4c.3 1.4 1.5 2.4 3.2 2.4 2.4 0 3.8-1.8 3.8-4.2 0-2.6-1.4-4.3-3.9-4.3zm-6.9-.2l-1.3-.2-.4 2.9-3.6 4.8 1.5.2 2.4-3.2h.3l1.5 3.7 1.5.2-2.3-5.5.4-2.9zm-11.6-3.3l1.1.3-2.5 8.3-1.2-.3-.2.7 2 .6 3-9.8-2-.6-.2.8zm-3.9 3.2c.6 0 1.5-.3 1.9-1.3.5-1.2-.2-2.6-1.8-3.2-1.6-.7-3-.2-3.5 1.1-.4 1 0 1.9.4 2.2l-.1.2c-.5 0-1.2.3-1.6 1.2-.5 1.2.2 2.4 1.6 3 1.4.6 2.8.2 3.3-1 .4-.9 0-1.6-.3-1.9l.1-.3zm-.7 1.8c-.3.8-1.2.9-2 .6-.8-.3-1.4-1.1-1-1.8.3-.8 1.2-.9 2-.6.8.3 1.3 1 1 1.8zm-.7-2.7c-1.1-.4-1.5-1.2-1.2-2.1.4-.9 1.3-1.1 2.3-.7 1.1.4 1.5 1.3 1.2 2.1-.4.9-1.3 1.2-2.3.7zm-9.3-1.1l6.4-4.3-.9-.5-6.4 4.3-.5 1 4.4 2.4.4-.7-3.5-2 .1-.2zm-4.4-2.8l3.5-4.9 1.5 1.1.5-.8-3.8-2.7-.5.8 1.5 1-4.2 5.7 1 .8h2.1l.6-.8-2.1-.1-.1-.1zm.3-8.9l.9.8.5-.6-1.6-1.4-6.6 7.9 1.6 1.4.5-.6-.9-.8 5.6-6.7z" fill="#fff"/></svg>